<mxfile host="app.diagrams.net" modified="2020-09-25T10:53:31.311Z" agent="5.0 (Windows NT 10.0; Win64; x64) AppleWebKit/537.36 (KHTML, like Gecko) Chrome/85.0.4183.121 Safari/537.36" etag="JAe9vSk83ym74OKbLX5b" version="13.7.5" type="github">
  <diagram id="C5RBs43oDa-KdzZeNtuy" name="Page-1">
    <mxGraphModel dx="871" dy="761" grid="1" gridSize="10" guides="1" tooltips="1" connect="1" arrows="1" fold="1" page="1" pageScale="1" pageWidth="827" pageHeight="1169" background="#F1FAEE" math="0" shadow="0">
      <root>
        <mxCell id="WIyWlLk6GJQsqaUBKTNV-0" />
        <mxCell id="WIyWlLk6GJQsqaUBKTNV-1" parent="WIyWlLk6GJQsqaUBKTNV-0" />
        <mxCell id="vZwp98gns-mJMdrfj274-1" value="TITLE" style="rounded=1;whiteSpace=wrap;html=1;sketch=0;strokeColor=#457B9D;fillColor=#A8DADC;fontColor=#1D3557;" vertex="1" parent="WIyWlLk6GJQsqaUBKTNV-1">
          <mxGeometry x="120" y="300" width="120" height="60" as="geometry" />
        </mxCell>
        <mxCell id="vZwp98gns-mJMdrfj274-5" value="MAIN" style="rounded=1;whiteSpace=wrap;html=1;sketch=0;strokeColor=#457B9D;fillColor=#A8DADC;fontColor=#1D3557;" vertex="1" parent="WIyWlLk6GJQsqaUBKTNV-1">
          <mxGeometry x="340" y="300" width="120" height="60" as="geometry" />
        </mxCell>
        <mxCell id="vZwp98gns-mJMdrfj274-6" value="press anykey" style="endArrow=classic;html=1;strokeColor=#457B9D;fillColor=#A8DADC;fontColor=#1D3557;verticalAlign=top;labelBackgroundColor=#99CCFF;exitX=1;exitY=0.5;exitDx=0;exitDy=0;fontSize=14;entryX=0;entryY=0.5;entryDx=0;entryDy=0;" edge="1" parent="WIyWlLk6GJQsqaUBKTNV-1" source="vZwp98gns-mJMdrfj274-1" target="vZwp98gns-mJMdrfj274-5">
          <mxGeometry width="50" height="50" relative="1" as="geometry">
            <mxPoint x="270" y="329.5" as="sourcePoint" />
            <mxPoint x="330" y="330" as="targetPoint" />
            <Array as="points" />
          </mxGeometry>
        </mxCell>
        <mxCell id="vZwp98gns-mJMdrfj274-25" value="game clear" style="edgeStyle=orthogonalEdgeStyle;curved=0;rounded=1;sketch=0;orthogonalLoop=1;jettySize=auto;html=1;labelBackgroundColor=#99CCFF;strokeColor=#457B9D;fillColor=#A8DADC;fontSize=14;fontColor=#1D3557;align=center;verticalAlign=top;" edge="1" parent="WIyWlLk6GJQsqaUBKTNV-1">
          <mxGeometry relative="1" as="geometry">
            <mxPoint x="670" y="330" as="sourcePoint" />
            <mxPoint x="750" y="330" as="targetPoint" />
          </mxGeometry>
        </mxCell>
        <mxCell id="vZwp98gns-mJMdrfj274-7" value="GAME(defence turn)" style="rounded=1;whiteSpace=wrap;html=1;sketch=0;strokeColor=#457B9D;fillColor=#A8DADC;fontColor=#1D3557;" vertex="1" parent="WIyWlLk6GJQsqaUBKTNV-1">
          <mxGeometry x="550" y="300" width="120" height="60" as="geometry" />
        </mxCell>
        <mxCell id="vZwp98gns-mJMdrfj274-8" value="select stage" style="endArrow=classic;html=1;strokeColor=#457B9D;fillColor=#A8DADC;fontColor=#1D3557;fontSize=14;verticalAlign=top;labelBackgroundColor=#99CCFF;exitX=1;exitY=0.5;exitDx=0;exitDy=0;entryX=0;entryY=0.5;entryDx=0;entryDy=0;" edge="1" parent="WIyWlLk6GJQsqaUBKTNV-1" target="vZwp98gns-mJMdrfj274-7">
          <mxGeometry width="50" height="50" relative="1" as="geometry">
            <mxPoint x="461" y="330" as="sourcePoint" />
            <mxPoint x="540" y="330" as="targetPoint" />
          </mxGeometry>
        </mxCell>
        <mxCell id="vZwp98gns-mJMdrfj274-9" value="GAME(combination turn)" style="rounded=1;whiteSpace=wrap;html=1;sketch=0;strokeColor=#457B9D;fillColor=#A8DADC;fontColor=#1D3557;" vertex="1" parent="WIyWlLk6GJQsqaUBKTNV-1">
          <mxGeometry x="550" y="430" width="120" height="60" as="geometry" />
        </mxCell>
        <mxCell id="vZwp98gns-mJMdrfj274-14" value="stage clear" style="endArrow=classic;html=1;labelBackgroundColor=#99CCFF;strokeColor=#457B9D;fillColor=#A8DADC;fontSize=15;fontColor=#1D3557;align=right;exitX=0.25;exitY=1;exitDx=0;exitDy=0;entryX=0.25;entryY=0;entryDx=0;entryDy=0;" edge="1" parent="WIyWlLk6GJQsqaUBKTNV-1" source="vZwp98gns-mJMdrfj274-7" target="vZwp98gns-mJMdrfj274-9">
          <mxGeometry width="50" height="50" relative="1" as="geometry">
            <mxPoint x="600" y="360" as="sourcePoint" />
            <mxPoint x="600" y="430" as="targetPoint" />
          </mxGeometry>
        </mxCell>
        <mxCell id="vZwp98gns-mJMdrfj274-15" value="&lt;div&gt;stage start&lt;/div&gt;" style="endArrow=classic;html=1;labelBackgroundColor=#99CCFF;strokeColor=#457B9D;fillColor=#A8DADC;fontSize=15;fontColor=#1D3557;align=left;entryX=0.75;entryY=1;entryDx=0;entryDy=0;exitX=0.75;exitY=0;exitDx=0;exitDy=0;" edge="1" parent="WIyWlLk6GJQsqaUBKTNV-1" source="vZwp98gns-mJMdrfj274-9" target="vZwp98gns-mJMdrfj274-7">
          <mxGeometry width="50" height="50" relative="1" as="geometry">
            <mxPoint x="620" y="429" as="sourcePoint" />
            <mxPoint x="619" y="360" as="targetPoint" />
          </mxGeometry>
        </mxCell>
        <mxCell id="vZwp98gns-mJMdrfj274-16" value="" style="endArrow=classic;html=1;labelBackgroundColor=#99CCFF;strokeColor=#457B9D;fillColor=#A8DADC;fontSize=12;fontColor=#1D3557;align=right;" edge="1" parent="WIyWlLk6GJQsqaUBKTNV-1">
          <mxGeometry width="50" height="50" relative="1" as="geometry">
            <mxPoint x="120" y="360" as="sourcePoint" />
            <mxPoint x="70" y="390" as="targetPoint" />
          </mxGeometry>
        </mxCell>
        <mxCell id="vZwp98gns-mJMdrfj274-17" value="LOGO" style="endArrow=classic;html=1;labelBackgroundColor=#99CCFF;strokeColor=#457B9D;fillColor=#A8DADC;fontSize=12;fontColor=#1D3557;align=right;verticalAlign=top;" edge="1" parent="WIyWlLk6GJQsqaUBKTNV-1">
          <mxGeometry width="50" height="50" relative="1" as="geometry">
            <mxPoint x="70" y="270" as="sourcePoint" />
            <mxPoint x="120" y="300" as="targetPoint" />
          </mxGeometry>
        </mxCell>
        <mxCell id="vZwp98gns-mJMdrfj274-19" value="START" style="text;html=1;strokeColor=none;fillColor=none;align=center;verticalAlign=middle;whiteSpace=wrap;rounded=0;sketch=0;fontSize=12;fontColor=#1D3557;" vertex="1" parent="WIyWlLk6GJQsqaUBKTNV-1">
          <mxGeometry x="30" y="250" width="40" height="20" as="geometry" />
        </mxCell>
        <mxCell id="vZwp98gns-mJMdrfj274-20" value="QUIT" style="text;html=1;strokeColor=none;fillColor=none;align=center;verticalAlign=middle;whiteSpace=wrap;rounded=0;sketch=0;fontSize=12;fontColor=#1D3557;" vertex="1" parent="WIyWlLk6GJQsqaUBKTNV-1">
          <mxGeometry x="30" y="390" width="40" height="20" as="geometry" />
        </mxCell>
        <mxCell id="vZwp98gns-mJMdrfj274-24" value="High Score" style="whiteSpace=wrap;html=1;rounded=1;fontColor=#1D3557;strokeColor=#457B9D;fillColor=#A8DADC;sketch=0;" vertex="1" parent="WIyWlLk6GJQsqaUBKTNV-1">
          <mxGeometry x="750" y="300" width="120" height="60" as="geometry" />
        </mxCell>
        <mxCell id="vZwp98gns-mJMdrfj274-26" value="select&amp;nbsp; score" style="endArrow=classic;startArrow=classic;html=1;labelBackgroundColor=#99CCFF;strokeColor=#457B9D;fillColor=#A8DADC;fontSize=14;fontColor=#1D3557;align=center;entryX=0.5;entryY=0;entryDx=0;entryDy=0;verticalAlign=bottom;" edge="1" parent="WIyWlLk6GJQsqaUBKTNV-1" target="vZwp98gns-mJMdrfj274-24">
          <mxGeometry x="-0.0218" width="50" height="50" relative="1" as="geometry">
            <mxPoint x="400" y="300" as="sourcePoint" />
            <mxPoint x="450" y="250" as="targetPoint" />
            <Array as="points">
              <mxPoint x="600" y="250" />
            </Array>
            <mxPoint as="offset" />
          </mxGeometry>
        </mxCell>
      </root>
    </mxGraphModel>
  </diagram>
</mxfile>
